<!-- Generator: Adobe Illustrator 24.0.2, SVG Export Plug-In  -->
<svg version="1.1" xmlns="http://www.w3.org/2000/svg" xmlns:xlink="http://www.w3.org/1999/xlink" x="0px" y="0px" width="751.3px"
	 height="968px" viewBox="0 0 751.3 968" style="enable-background:new 0 0 751.3 968;" xml:space="preserve">
<style type="text/css">
	.st0{fill:#D6EFC7;}
	.st1{fill:#96BB7C;}
	.st2{fill:#F0BB62;}
	.st3{fill:none;}
	.st4{fill:#F4EEA9;}
</style>
<defs>
</defs>
<g id="lasdelicias_1_">
	<g id="Mazorca_1_">
		<g id="Hojas_detras_1_">
			<path class="st0" d="M101.62,281.79c38.56,10.65,190.24,65.39,192.26,267.83c0.04,4.48-6.34,7.38-11.63,5.27
				C233.64,535.56,50.84,451.03,91.04,286.28C91.93,282.65,96.99,280.51,101.62,281.79z"/>
			<path class="st1" d="M649.68,281.79c-38.56,10.65-190.24,65.39-192.26,267.83c-0.04,4.48,6.34,7.38,11.63,5.27
				c48.61-19.33,231.41-103.86,191.21-268.61C659.37,282.65,654.31,280.51,649.68,281.79z"/>
		</g>
		<g id="Mazorca_2_">
			<ellipse id="Tusa_1_" class="st2" cx="375.65" cy="462.67" rx="188.42" ry="462.67"/>
			<g id="Granos_1_">
				<path class="st3" d="M490.31,816.34c-16.11,0-29.16-9.77-29.16-21.82v-6.12c0-12.05,13.06-21.82,29.16-21.82h27.41
					c3.52-9.91,6.87-20.18,10.03-30.81h-37.44c-16.11,0-29.16-9.77-29.16-21.82v-6.12c0-12.05,13.06-21.82,29.16-21.82h49.34
					c0.35,0,0.69,0.03,1.03,0.04c2.32-10.3,4.48-20.84,6.48-31.6c-2.4,0.48-4.91,0.76-7.51,0.76h-49.34
					c-16.11,0-29.16-9.77-29.16-21.82v-6.12c0-12.05,13.06-21.82,29.16-21.82h49.34c5.43,0,10.5,1.13,14.86,3.07
					c1.74-12.9,3.26-26.06,4.55-39.44c-5.16,3.45-11.94,5.56-19.4,5.56h-49.34c-16.11,0-29.16-9.77-29.16-21.82v-6.12
					c0-12.05,13.06-21.82,29.16-21.82h49.34c8.94,0,16.92,3.01,22.27,7.75c1.07-17.38,1.75-35.08,2.02-53.05
					c-5.23,5.88-14.15,9.75-24.29,9.75h-49.34c-16.11,0-29.16-9.77-29.16-21.82v-6.12c0-12.05,13.06-21.82,29.16-21.82h49.34
					c10.17,0,19.12,3.9,24.33,9.81c-0.21-18.03-0.84-35.81-1.86-53.27c-5.35,4.84-13.43,7.92-22.47,7.92h-49.34
					c-16.11,0-29.16-9.77-29.16-21.82v-6.12c0-12.05,13.06-21.82,29.16-21.82h49.34c7.63,0,14.56,2.21,19.76,5.81
					c-1.48-16.02-3.29-31.73-5.43-47.07c-5.28,5.6-13.98,9.27-23.83,9.27h-43.01c-16.11,0-29.16-9.77-29.16-21.82v-6.12
					c0-12.05,13.06-21.82,29.16-21.82h43.01c6.88,0,13.19,1.79,18.18,4.77c-2.83-15.86-6.01-31.24-9.51-46.11
					c-5.32,4.28-12.9,6.98-21.33,6.98h-33.51c-16.11,0-29.16-9.77-29.16-21.82v-6.12c0-12.05,13.06-21.82,29.16-21.82h33.51
					c3.65,0,7.13,0.52,10.34,1.44c-3.84-12.88-7.94-25.25-12.28-37.07c-2.97,0.81-6.17,1.27-9.52,1.27h-32.77
					c-15.44,0-27.95-9.36-27.95-20.92v-28.85h49.49c-6.43-12.9-13.21-24.79-20.31-35.54h-24.98c-15.44,0-27.95-9.36-27.95-20.92
					V18.96h7.63C412.23,6.62,394.25,0,375.65,0s-36.58,6.62-53.55,18.96h1.3V47.8c0,11.55-12.51,20.92-27.95,20.92H276.8
					c-7.1,10.76-13.88,22.64-20.31,35.54h46.32v28.85c0,11.55-12.51,20.92-27.95,20.92H242.1c-2.27,0-4.47-0.23-6.59-0.61
					c-4.17,11.38-8.11,23.26-11.8,35.62c2.23-0.41,4.54-0.65,6.94-0.65h33.51c16.11,0,29.16,9.77,29.16,21.82v6.12
					c0,12.05-13.06,21.82-29.16,21.82h-33.51c-7.08,0-13.57-1.89-18.62-5.03c-3.14,13.49-6.02,27.4-8.61,41.69
					c3.91-1.46,8.31-2.3,12.98-2.3h43.01c16.11,0,29.16,9.77,29.16,21.82v6.12c0,12.05-13.06,21.82-29.16,21.82h-43.01
					c-7.54,0-14.4-2.16-19.58-5.68c-1.8,13.31-3.37,26.88-4.68,40.69c4.33-1.91,9.36-3.02,14.75-3.02h49.34
					c16.11,0,29.16,9.77,29.16,21.82v6.12c0,12.05-13.06,21.82-29.16,21.82h-49.34c-6.76,0-12.97-1.74-17.91-4.63
					c-0.84,15.06-1.38,30.34-1.62,45.82c5.17-3.5,12.01-5.65,19.53-5.65h49.34c16.11,0,29.16,9.77,29.16,21.82v6.12
					c0,12.05-13.06,21.82-29.16,21.82h-49.34c-7.49,0-14.3-2.13-19.47-5.61c0.28,15.43,0.87,30.67,1.75,45.67
					c4.91-2.82,11.04-4.52,17.72-4.52h49.34c16.11,0,29.16,9.77,29.16,21.82v6.12c0,12.05-13.06,21.82-29.16,21.82h-49.34
					c-5.24,0-10.14-1.05-14.39-2.86c1.17,11.89,2.53,23.59,4.06,35.1c3.21-0.91,6.69-1.43,10.33-1.43h49.34
					c16.11,0,29.16,9.77,29.16,21.82v6.12c0,12.05-13.06,21.82-29.16,21.82h-49.34c-0.89,0-1.77-0.04-2.64-0.1
					c1.96,10.52,4.08,20.83,6.35,30.91h45.63c16.11,0,29.16,9.77,29.16,21.82v6.12c0,12.05-13.06,21.82-29.16,21.82h-32.69
					c3.17,10.62,6.52,20.9,10.03,30.81h22.66c16.11,0,29.16,9.77,29.16,21.82v6.12c0,12.05-13.06,21.82-29.16,21.82h-2.07
					c32.8,68.01,75.19,109,121.49,109s88.68-40.99,121.49-109H490.31z M362.98,21.33c3.17-9.48,9.5-17.77,9.5-17.77
					s6.33,5.92,11.08,15.4c4.75,9.48,26.92,52.13-11.08,52.13S362.98,21.33,362.98,21.33z M336.07,126.09
					c0-12.05,13.06-21.82,29.16-21.82h14.51c16.11,0,29.16,9.77,29.16,21.82v6.12c0,12.05-13.06,21.82-29.16,21.82h-14.51
					c-16.11,0-29.16-9.77-29.16-21.82V126.09z M326.57,210.21c0-12.05,13.06-21.82,29.16-21.82h33.51
					c16.11,0,29.16,9.77,29.16,21.82v6.12c0,12.05-13.06,21.82-29.16,21.82h-33.51c-16.11,0-29.16-9.77-29.16-21.82V210.21z
					 M321.82,294.33c0-12.05,13.06-21.82,29.16-21.82h43.01c16.11,0,29.16,9.77,29.16,21.82v6.12c0,12.05-13.06,21.82-29.16,21.82
					h-43.01c-16.11,0-29.16-9.77-29.16-21.82V294.33z M426.32,794.52c0,12.05-13.06,21.82-29.16,21.82h-49.34
					c-16.11,0-29.16-9.77-29.16-21.82v-6.12c0-12.05,13.06-21.82,29.16-21.82h49.34c16.11,0,29.16,9.77,29.16,21.82V794.52z
					 M426.32,713.95c0,12.05-13.06,21.82-29.16,21.82h-49.34c-16.11,0-29.16-9.77-29.16-21.82v-6.12
					c0-12.05,13.06-21.82,29.16-21.82h49.34c16.11,0,29.16,9.77,29.16,21.82V713.95z M426.32,633.38
					c0,12.05-13.06,21.82-29.16,21.82h-49.34c-16.11,0-29.16-9.77-29.16-21.82v-6.12c0-12.05,13.06-21.82,29.16-21.82h49.34
					c16.11,0,29.16,9.77,29.16,21.82V633.38z M426.32,552.82c0,12.05-13.06,21.82-29.16,21.82h-49.34
					c-16.11,0-29.16-9.77-29.16-21.82v-6.12c0-12.05,13.06-21.82,29.16-21.82h49.34c16.11,0,29.16,9.77,29.16,21.82V552.82z
					 M426.32,467.51c0,12.05-13.06,21.82-29.16,21.82h-49.34c-16.11,0-29.16-9.77-29.16-21.82v-6.12
					c0-12.05,13.06-21.82,29.16-21.82h49.34c16.11,0,29.16,9.77,29.16,21.82V467.51z M426.32,382.2c0,12.05-13.06,21.82-29.16,21.82
					h-49.34c-16.11,0-29.16-9.77-29.16-21.82v-6.12c0-12.05,13.06-21.82,29.16-21.82h49.34c16.11,0,29.16,9.77,29.16,21.82V382.2z"
					/>
				<path class="st4" d="M397.15,354.26h-49.34c-16.11,0-29.16,9.77-29.16,21.82v6.12c0,12.05,13.06,21.82,29.16,21.82h49.34
					c16.11,0,29.16-9.77,29.16-21.82v-6.12C426.32,364.03,413.26,354.26,397.15,354.26z"/>
				<path class="st4" d="M350.98,322.27h43.01c16.11,0,29.16-9.77,29.16-21.82v-6.12c0-12.05-13.06-21.82-29.16-21.82h-43.01
					c-16.11,0-29.16,9.77-29.16,21.82v6.12C321.82,312.5,334.87,322.27,350.98,322.27z"/>
				<path class="st4" d="M355.73,238.15h33.51c16.11,0,29.16-9.77,29.16-21.82v-6.12c0-12.05-13.06-21.82-29.16-21.82h-33.51
					c-16.11,0-29.16,9.77-29.16,21.82v6.12C326.57,228.38,339.62,238.15,355.73,238.15z"/>
				<path class="st4" d="M365.23,154.03h14.51c16.11,0,29.16-9.77,29.16-21.82v-6.12c0-12.05-13.06-21.82-29.16-21.82h-14.51
					c-16.11,0-29.16,9.77-29.16,21.82v6.12C336.07,144.26,349.12,154.03,365.23,154.03z"/>
				<path class="st4" d="M445.32,133.11c0,11.55,12.51,20.92,27.95,20.92h32.77c3.35,0,6.54-0.46,9.52-1.27
					c-6.4-17.42-13.34-33.63-20.74-48.49h-49.49V133.11z"/>
				<path class="st4" d="M421.57,47.8c0,11.55,12.51,20.92,27.95,20.92h24.98c-13.99-21.21-29.2-38.06-45.3-49.76h-7.63V47.8z"/>
				<path class="st4" d="M274.86,154.03c15.44,0,27.95-9.36,27.95-20.92v-28.85h-46.32c-7.5,15.05-14.51,31.49-20.98,49.15
					c2.12,0.38,4.32,0.61,6.59,0.61H274.86z"/>
				<path class="st4" d="M323.4,47.8V18.96h-1.3c-16.1,11.7-31.31,28.55-45.3,49.76h18.65C310.89,68.72,323.4,59.36,323.4,47.8z"/>
				<path class="st4" d="M264.15,238.15c16.11,0,29.16-9.77,29.16-21.82v-6.12c0-12.05-13.06-21.82-29.16-21.82h-33.51
					c-2.4,0-4.71,0.24-6.94,0.65c-4.22,14.11-8.12,28.82-11.68,44.08c5.05,3.14,11.54,5.03,18.62,5.03H264.15z"/>
				<path class="st4" d="M483.98,188.39c-16.11,0-29.16,9.77-29.16,21.82v6.12c0,12.05,13.06,21.82,29.16,21.82h33.51
					c8.43,0,16.01-2.69,21.33-6.98c-3.37-14.28-7.04-28.08-10.99-41.35c-3.22-0.92-6.7-1.44-10.34-1.44H483.98z"/>
				<path class="st4" d="M259.4,322.27c16.11,0,29.16-9.77,29.16-21.82v-6.12c0-12.05-13.06-21.82-29.16-21.82h-43.01
					c-4.67,0-9.07,0.84-12.98,2.3c-2.46,13.59-4.67,27.53-6.6,41.78c5.18,3.52,12.03,5.68,19.58,5.68H259.4z"/>
				<path class="st4" d="M487.15,272.51c-16.11,0-29.16,9.77-29.16,21.82v6.12c0,12.05,13.06,21.82,29.16,21.82h43.01
					c9.86,0,18.55-3.67,23.83-9.27c-1.69-12.14-3.58-24.05-5.66-35.72c-4.99-2.98-11.3-4.77-18.18-4.77H487.15z"/>
				<path class="st4" d="M490.31,354.26c-16.11,0-29.16,9.77-29.16,21.82v6.12c0,12.05,13.06,21.82,29.16,21.82h49.34
					c9.04,0,17.13-3.08,22.47-7.92c-0.71-12.17-1.62-24.19-2.71-36.04c-5.2-3.59-12.13-5.81-19.76-5.81H490.31z"/>
				<path class="st4" d="M256.24,404.02c16.11,0,29.16-9.77,29.16-21.82v-6.12c0-12.05-13.06-21.82-29.16-21.82h-49.34
					c-5.39,0-10.42,1.11-14.75,3.02c-1.31,13.81-2.37,27.86-3.16,42.12c4.95,2.89,11.15,4.63,17.91,4.63H256.24z"/>
				<path class="st4" d="M397.15,439.57h-49.34c-16.11,0-29.16,9.77-29.16,21.82v6.12c0,12.05,13.06,21.82,29.16,21.82h49.34
					c16.11,0,29.16-9.77,29.16-21.82v-6.12C426.32,449.34,413.26,439.57,397.15,439.57z"/>
				<path class="st4" d="M539.66,439.57h-49.34c-16.11,0-29.16,9.77-29.16,21.82v6.12c0,12.05,13.06,21.82,29.16,21.82h49.34
					c10.14,0,19.06-3.88,24.29-9.75c0.08-5.61,0.13-11.25,0.13-16.91c0-4.45-0.03-8.88-0.08-13.3
					C558.77,443.47,549.83,439.57,539.66,439.57z"/>
				<path class="st4" d="M256.24,489.33c16.11,0,29.16-9.77,29.16-21.82v-6.12c0-12.05-13.06-21.82-29.16-21.82h-49.34
					c-7.52,0-14.36,2.15-19.53,5.65c-0.09,5.79-0.13,11.61-0.13,17.45c0,7.06,0.07,14.07,0.2,21.05c5.17,3.47,11.98,5.61,19.47,5.61
					H256.24z"/>
				<path class="st4" d="M397.15,524.88h-49.34c-16.11,0-29.16,9.77-29.16,21.82v6.12c0,12.05,13.06,21.82,29.16,21.82h49.34
					c16.11,0,29.16-9.77,29.16-21.82v-6.12C426.32,534.65,413.26,524.88,397.15,524.88z"/>
				<path class="st4" d="M539.66,524.88h-49.34c-16.11,0-29.16,9.77-29.16,21.82v6.12c0,12.05,13.06,21.82,29.16,21.82h49.34
					c7.46,0,14.25-2.11,19.4-5.56c1.15-11.98,2.11-24.13,2.87-36.45C556.58,527.89,548.59,524.88,539.66,524.88z"/>
				<path class="st4" d="M256.24,574.64c16.11,0,29.16-9.77,29.16-21.82v-6.12c0-12.05-13.06-21.82-29.16-21.82h-49.34
					c-6.67,0-12.8,1.69-17.72,4.52c0.84,14.35,1.96,28.49,3.32,42.39c4.25,1.81,9.15,2.86,14.39,2.86H256.24z"/>
				<path class="st4" d="M397.15,605.44h-49.34c-16.11,0-29.16,9.77-29.16,21.82v6.12c0,12.05,13.06,21.82,29.16,21.82h49.34
					c16.11,0,29.16-9.77,29.16-21.82v-6.12C426.32,615.21,413.26,605.44,397.15,605.44z"/>
				<path class="st4" d="M490.31,605.44c-16.11,0-29.16,9.77-29.16,21.82v6.12c0,12.05,13.06,21.82,29.16,21.82h49.34
					c2.6,0,5.11-0.28,7.51-0.76c2.77-14.9,5.22-30.23,7.35-45.94c-4.36-1.94-9.42-3.07-14.86-3.07H490.31z"/>
				<path class="st4" d="M256.24,655.21c16.11,0,29.16-9.77,29.16-21.82v-6.12c0-12.05-13.06-21.82-29.16-21.82h-49.34
					c-3.64,0-7.11,0.52-10.33,1.43c2.2,16.51,4.77,32.6,7.69,48.23c0.87,0.06,1.75,0.1,2.64,0.1H256.24z"/>
				<path class="st4" d="M397.15,686.01h-49.34c-16.11,0-29.16,9.77-29.16,21.82v6.12c0,12.05,13.06,21.82,29.16,21.82h49.34
					c16.11,0,29.16-9.77,29.16-21.82v-6.12C426.32,695.78,413.26,686.01,397.15,686.01z"/>
				<path class="st4" d="M490.31,686.01c-16.11,0-29.16,9.77-29.16,21.82v6.12c0,12.05,13.06,21.82,29.16,21.82h37.44
					c4.72-15.84,9.05-32.44,12.93-49.72c-0.35-0.01-0.69-0.04-1.03-0.04H490.31z"/>
				<path class="st4" d="M285.4,713.95v-6.12c0-12.05-13.06-21.82-29.16-21.82H210.6c3.89,17.29,8.21,33.91,12.94,49.76h32.69
					C272.34,735.77,285.4,726,285.4,713.95z"/>
				<path class="st4" d="M397.15,766.58h-49.34c-16.11,0-29.16,9.77-29.16,21.82v6.12c0,12.05,13.06,21.82,29.16,21.82h49.34
					c16.11,0,29.16-9.77,29.16-21.82v-6.12C426.32,776.35,413.26,766.58,397.15,766.58z"/>
				<path class="st4" d="M461.15,788.4v6.12c0,12.05,13.06,21.82,29.16,21.82h6.82c7.37-15.28,14.25-31.92,20.59-49.76h-27.41
					C474.21,766.58,461.15,776.35,461.15,788.4z"/>
				<path class="st4" d="M285.4,794.52v-6.12c0-12.05-13.06-21.82-29.16-21.82h-22.66c6.34,17.84,13.22,34.49,20.59,49.76h2.07
					C272.34,816.34,285.4,806.57,285.4,794.52z"/>
				<path class="st4" d="M372.48,71.09c38,0,15.83-42.65,11.08-52.13c-4.75-9.48-11.08-15.4-11.08-15.4s-6.33,8.29-9.5,17.77
					C362.98,21.33,334.48,71.09,372.48,71.09z"/>
			</g>
		</g>
		<g id="Hojas_delante_1_">
			<path class="st1" d="M375.65,968c-49.08,0-202.67-21.33-262.84-152.84c0,0-20.58-36.73-25.33-138.62S36.81,390.99,0.4,355.45
				c0,0-6.33-34.36,31.67-26.07c38,8.29,156.75,33.18,247,188.39s83.92,190.76,96.58,303.31V968z"/>
			<path class="st0" d="M375.65,968c49.08,0,202.67-21.33,262.84-152.84c0,0,20.58-36.73,25.33-138.62
				c4.75-101.89,50.67-285.54,87.08-321.09c0,0,6.33-34.36-31.67-26.07c-38,8.29-156.75,33.18-247,188.39
				s-83.92,190.76-96.58,303.31V968z"/>
		</g>
	</g>
</g>
</svg>
