<!-- Generator: Adobe Illustrator 24.0.2, SVG Export Plug-In  -->
<svg version="1.1" xmlns="http://www.w3.org/2000/svg" xmlns:xlink="http://www.w3.org/1999/xlink" x="0px" y="0px"
	 width="799.84px" height="893px" viewBox="0 0 799.84 893" style="enable-background:new 0 0 799.84 893;" xml:space="preserve">
<style type="text/css">
	.st0{fill:#FFFFFF;stroke:#000000;stroke-width:33;stroke-linecap:round;stroke-miterlimit:10;}
	.st1{fill:#FFBC53;stroke:#000000;stroke-width:30;stroke-miterlimit:10;}
	.st2{fill:none;stroke:#000000;stroke-width:33;stroke-linecap:round;stroke-miterlimit:10;}
	.st3{fill:#FE6663;stroke:#000000;stroke-width:33;stroke-linecap:round;stroke-miterlimit:10;}
	.st4{fill:#FFCDAC;stroke:#000000;stroke-width:30;stroke-miterlimit:10;}
	.st5{fill:#A5DDFF;stroke:#000000;stroke-width:30;stroke-miterlimit:10;}
</style>
<defs>
</defs>
<g id="personal_1_">
	<path class="st0" d="M722.5,622.5v220.43c0,18.54-15.03,33.57-33.57,33.57H50.07c-18.54,0-33.57-15.03-33.57-33.57V50.07
		c0-18.54,15.03-33.57,33.57-33.57h638.86c18.54,0,33.57,15.03,33.57,33.57v65.63"/>
	<path class="st1" d="M526.49,777.15l-5.52-130.87c-0.02-0.44,0.05-0.88,0.21-1.3l136.56-364.4c0.05-0.12,0.08-0.24,0.11-0.37
		c1.2-4.93,27.61-109.9,89.54-82.6c63.41,27.96,29.21,84.3,19.67,118.31c-9.29,33.12-133.09,354.33-139.56,371.1
		c-0.17,0.45-0.44,0.85-0.79,1.19l-94.64,91.15C530.02,781.35,526.61,779.99,526.49,777.15z"/>
	<g id="words_1_">
		<line class="st2" x1="213" y1="486.5" x2="463" y2="486.5"/>
		<line class="st2" x1="213.5" y1="584.5" x2="463.5" y2="584.5"/>
		<line class="st2" x1="213.5" y1="682.5" x2="463.5" y2="682.5"/>
		<line class="st2" x1="358" y1="780.5" x2="463.5" y2="780.5"/>
		<circle cx="135" cy="485" r="18"/>
		<circle cx="135" cy="585" r="18"/>
		<circle cx="135" cy="683" r="18"/>
	</g>
	<g id="person_1_">
		<circle class="st3" cx="369.5" cy="249.5" r="144"/>
		<ellipse class="st4" cx="369.5" cy="236.5" rx="46.5" ry="51.5"/>
		<path class="st5" d="M401.42,383.31c29.43-7.14,50.08-23.84,50.08-43.31c0-25.96-36.71-47-82-47s-82,21.04-82,47
			c0,17.84,17.35,33.36,42.9,41.32"/>
	</g>
</g>
</svg>
