<!-- Generator: Adobe Illustrator 24.0.2, SVG Export Plug-In  -->
<svg version="1.1" xmlns="http://www.w3.org/2000/svg" xmlns:xlink="http://www.w3.org/1999/xlink" x="0px" y="0px"
	 width="949.58px" height="969px" viewBox="0 0 949.58 969" style="enable-background:new 0 0 949.58 969;" xml:space="preserve">
<style type="text/css">
	.st0{fill:#BF4949;}
	.st1{fill:#599970;}
	.st2{fill:#D89E9E;}
	.st3{fill:#FFF8C1;stroke:#3F3D30;stroke-miterlimit:10;}
	.st4{fill:#3F3D30;}
	.st5{fill:#418899;}
	.st6{fill:#67DCEF;}
	.st7{fill:#F46262;stroke:#3F3D30;stroke-miterlimit:10;}
	.st8{fill:#3F3D30;stroke:#3F3D30;stroke-width:5.8248;stroke-miterlimit:10;}
</style>
<defs>
</defs>
<g id="pomodore_1_">
	<g id="Tomtate_1_">
		<path class="st0" d="M595.51,112.91c-8.01,17.91-21.12,33.67-37.83,44.02c-67.98,42.08-141,46.92-213.45,14.36
			c-19.52-8.77-31.98-25.12-38.79-44C126.88,189.8,0,348.2,0,533.83C0,774.17,212.57,969,474.79,969
			c262.22,0,474.79-194.83,474.79-435.17C949.58,331.74,799.26,161.86,595.51,112.91z"/>
		<path class="st1" d="M745.63,158.33c-47.96-30.74-138.04-73.57-224.58-33.99c-8.33,3.82-17.82-2.19-17.82-11.36V33.43
			C503.25,15.05,490.77,0,475.51,0H433.9c-15.26,0-27.74,15.05-27.74,33.43v84.26c0,7.96-7.21,13.98-15.01,12.37
			c-35.14-7.24-126.37-18.51-213.63,33.6c-11.94,7.13-5.02,25.85,8.69,23.34c40.62-7.43,94.08-12.54,130.21,1.72
			c9.47,3.73,10.84,16.68,2.32,22.26c-25.66,16.75-73.01,55.28-104.02,126.11c-5.28,12.06,9.55,22.86,19.71,14.49
			c39.63-32.65,104.83-76.88,160.13-69.75c6.51,0.84,11.46,6.16,11.36,12.73c-0.56,37.1-0.09,163.16,30.55,210.87
			c4.83,7.53,15.65,7.9,20.91,0.66c19.52-26.82,61.85-97.96,60.11-209.04c-0.11-7.3,5.75-13.23,13.05-12.99
			c27.89,0.9,93.75,8.78,145.97,59.79c8.55,8.37,22.73,1.14,21.23-10.73c-4.1-32.48-21.98-81.6-86.69-119.69
			c-9.83-5.78-8.16-20.5,2.9-23.21c22.35-5.48,60.88-10.71,124.37-8.61C751.21,182.01,756.47,165.27,745.63,158.33z"/>
		<path class="st2" d="M73.94,499.4c-0.43,0-0.88-0.02-1.31-0.06c-10.33-0.71-18.1-9.66-17.39-19.95
			c1.76-24.84,6.85-48.97,15.18-71.77c3.54-9.72,14.25-14.66,24.02-11.16c9.72,3.54,14.69,14.3,11.16,24.02
			c-7.13,19.49-11.49,40.17-12.99,61.49C91.91,491.85,83.7,499.4,73.94,499.4z"/>
	</g>
	<g id="Despierto_1_">
		<path class="st2" d="M96.46,648.37c-6.4,0-12.64-3.28-16.12-9.17c-14-23.64-23.17-49.76-27.27-77.61
			c-1.5-10.24,5.58-19.75,15.8-21.25c10.41-1.61,19.75,5.58,21.25,15.8c3.33,22.71,11.1,44.83,22.44,63.98
			c5.26,8.89,2.34,20.39-6.57,25.65C103,647.52,99.7,648.37,96.46,648.37z"/>
		<g id="Ojos_despiertos_1_">
			<g>
				<ellipse class="st3" cx="317.65" cy="561.72" rx="58.15" ry="107.07"/>
				<circle class="st4" cx="317.65" cy="627.35" r="41.45"/>
			</g>
			<g>
				<ellipse class="st3" cx="585.56" cy="561.72" rx="58.15" ry="107.07"/>
				<circle class="st4" cx="585.56" cy="627.35" r="41.45"/>
			</g>
		</g>
		<g id="Gota_agua_1_">
			<path class="st5" d="M714.58,350.66c0,0-16.76,40.15-21.09,54.47c-3.87,12.8,8.23,30.31,21.09,30.31s24.12-15.31,21.17-29.63
				C732.74,391.15,714.58,350.66,714.58,350.66z"/>
			<g>
				<g>
					<path class="st6" d="M706.98,423.86c-4.98-4.22-6.96-11.69-4.31-17.75c0.33-0.75,0.21-1.6-0.54-2.05
						c-0.63-0.38-1.73-0.2-2.05,0.54c-3.16,7.24-1.31,16.23,4.78,21.38C706.33,427.22,708.46,425.11,706.98,423.86L706.98,423.86z"
						/>
				</g>
			</g>
		</g>
		<path class="st7" d="M518.08,769.48c-5.96-29.46-19.81-49.54-33.7-46.73c-13.07,2.64-22.16,24.71-23.18,52.83
			C477.2,767.3,497.97,765.83,518.08,769.48z"/>
		<path class="st8" d="M522.02,763.6l-144.07,20.41c-1.69,0.24-2.87,1.81-2.63,3.5l2.59,18.28c0.24,1.69,1.81,2.87,3.5,2.63
			l144.07-20.41c1.69-0.24,2.87-1.81,2.63-3.5l-2.59-18.28C525.28,764.54,523.71,763.36,522.02,763.6z"/>
	</g>
</g>
</svg>
