<!-- Generator: Adobe Illustrator 24.0.2, SVG Export Plug-In  -->
<svg version="1.1" xmlns="http://www.w3.org/2000/svg" xmlns:xlink="http://www.w3.org/1999/xlink" x="0px" y="0px"
	 width="860.12px" height="960.5px" viewBox="0 0 860.12 960.5" style="enable-background:new 0 0 860.12 960.5;"
	 xml:space="preserve">
<style type="text/css">
	.st0{fill:#673F28;}
	.st1{fill:#F8EFC6;}
	.st2{fill:#7B8985;}
	.st3{fill:#C0C4C2;}
	.st4{opacity:0.84;fill:none;stroke:#F47373;stroke-width:21;stroke-miterlimit:10;}
	.st5{opacity:0.84;fill:#57B37E;}
	.st6{fill:#D5B089;}
</style>
<defs>
</defs>
<g id="Todo_1_">
	<g id="Table_1_">
		<g id="Back_1_">
			<path class="st0" d="M839.71,960.5H20.41C9.14,960.5,0,951.36,0,940.09V20.41C0,9.14,9.14,0,20.41,0h819.3
				c11.27,0,20.41,9.14,20.41,20.41v919.68C860.12,951.36,850.98,960.5,839.71,960.5z"/>
			<path class="st1" d="M786.56,896.62H73.55c-4.08,0-7.39-3.31-7.39-7.39V123.74c0-4.08,3.31-7.39,7.39-7.39h713.01
				c4.08,0,7.39,3.31,7.39,7.39v765.49C793.95,893.31,790.64,896.62,786.56,896.62z"/>
		</g>
		<g id="Hook_1_">
			<path class="st2" d="M164.27,118.64l26.16,42.84c0,0,3.5,39.29,19.47,39.29s433.48,0,433.48,0s17.6,6.84,21.35-41.07
				c3.75-47.91,28.84-41.07,28.84-41.07l4.43,50.19c0,0-8.99,63.88-47.77,63.88s-444.89,0-444.89,0s-38.27-2.28-45.37-63.88
				S164.27,118.64,164.27,118.64z"/>
			<circle class="st3" cx="164.27" cy="118.64" r="50.19"/>
			<circle class="st3" cx="693.57" cy="118.64" r="50.19"/>
			<path class="st3" d="M513.02,184.8H342.53c-7.73,0-14,6.27-14,14v35.88c0,7.73,6.27,14,14,14h170.49c7.73,0,14-6.27,14-14V198.8
				C527.02,191.07,520.75,184.8,513.02,184.8z"/>
		</g>
	</g>
	<path class="st4" d="M249.01,772.75h-69.63c-2.67,0-4.84-2.17-4.84-4.84v-74.49c0-2.67,2.17-4.84,4.84-4.84h69.63
		c2.67,0,4.84,2.17,4.84,4.84v74.49C253.85,770.58,251.68,772.75,249.01,772.75z"/>
	<path class="st5" d="M210.01,574.22l54.97-60.65c2.97-3.28,8.04-3.54,11.33-0.58l10.73,9.65c3.36,3.03,3.57,8.23,0.45,11.51
		l-75.43,79.4c-3.07,3.24-8.2,3.35-11.41,0.25l-54.45-52.57c-3.23-3.12-3.28-8.29-0.1-11.46l8.92-8.92c3.2-3.2,8.4-3.13,11.51,0.15
		l31.7,33.37C201.45,577.74,206.87,577.68,210.01,574.22z"/>
	<path class="st5" d="M210.01,412.23l54.97-60.65c2.97-3.28,8.04-3.54,11.33-0.58l10.73,9.65c3.36,3.03,3.57,8.23,0.45,11.51
		l-75.43,79.4c-3.07,3.24-8.2,3.35-11.41,0.25l-54.45-52.57c-3.23-3.12-3.28-8.29-0.1-11.46l8.92-8.92c3.2-3.2,8.4-3.13,11.51,0.15
		l31.7,33.37C201.45,415.76,206.87,415.7,210.01,412.23z"/>
	<path class="st6" d="M734.12,414.09h-414.2c-4.69,0-8.5-3.81-8.5-8.5V383.8c0-4.69,3.81-8.5,8.5-8.5h414.2c4.69,0,8.5,3.81,8.5,8.5
		v21.79C742.62,410.28,738.81,414.09,734.12,414.09z"/>
	<path class="st6" d="M734.12,573.79h-414.2c-4.69,0-8.5-3.81-8.5-8.5v-21.79c0-4.69,3.81-8.5,8.5-8.5h414.2
		c4.69,0,8.5,3.81,8.5,8.5v21.79C742.62,569.98,738.81,573.79,734.12,573.79z"/>
	<path class="st6" d="M459.46,711.01H319.92c-4.69,0-8.5,3.81-8.5,8.5v21.79c0,4.69,3.81,8.5,8.5,8.5h139.54V711.01z"/>
	<path class="st6" d="M734.12,711.01H469.46v38.79h264.66c4.69,0,8.5-3.81,8.5-8.5v-21.79
		C742.62,714.81,738.81,711.01,734.12,711.01z"/>
</g>
</svg>
